<svg width="28" height="28" viewBox="0 0 28 28" fill="none" xmlns="http://www.w3.org/2000/svg">
<symbol id="floppydisk-mobile">
<rect width="2.15385" height="2.15385" fill="currentColor"/>
<rect y="2.1543" width="2.15385" height="2.15385" fill="currentColor"/>
<rect y="4.30762" width="2.15385" height="2.15385" fill="currentColor"/>
<rect y="6.46191" width="2.15385" height="2.15385" fill="currentColor"/>
<rect y="8.61523" width="2.15385" height="2.15385" fill="currentColor"/>
<rect y="10.7695" width="2.15385" height="2.15385" fill="currentColor"/>
<rect y="12.9229" width="2.15385" height="2.15385" fill="currentColor"/>
<rect y="15.0771" width="2.15385" height="2.15385" fill="currentColor"/>
<rect y="17.2305" width="2.15385" height="2.15385" fill="currentColor"/>
<rect y="19.3848" width="2.15385" height="2.15385" fill="currentColor"/>
<rect y="21.5381" width="2.15385" height="2.15385" fill="currentColor"/>
<rect y="23.6924" width="2.15385" height="2.15385" fill="currentColor"/>
<rect y="25.8457" width="2.15385" height="2.15385" fill="currentColor"/>
<rect x="23.6927" width="2.15385" height="2.15385" transform="rotate(90 23.6927 0)" fill="currentColor"/>
<rect x="21.5391" width="2.15385" height="2.15385" transform="rotate(90 21.5391 0)" fill="currentColor"/>
<rect x="19.3841" width="2.15385" height="2.15385" transform="rotate(90 19.3841 0)" fill="currentColor"/>
<rect x="17.2305" width="2.15385" height="2.15385" transform="rotate(90 17.2305 0)" fill="currentColor"/>
<rect x="15.0768" width="2.15385" height="2.15385" transform="rotate(90 15.0768 0)" fill="currentColor"/>
<rect x="12.9232" width="2.15385" height="2.15385" transform="rotate(90 12.9232 0)" fill="currentColor"/>
<rect x="10.7695" width="2.15385" height="2.15385" transform="rotate(90 10.7695 0)" fill="currentColor"/>
<rect x="8.61589" width="2.15385" height="2.15385" transform="rotate(90 8.61589 0)" fill="currentColor"/>
<rect x="6.46094" width="2.15385" height="2.15385" transform="rotate(90 6.46094 0)" fill="currentColor"/>
<rect x="4.3073" width="2.15385" height="2.15385" transform="rotate(90 4.3073 0)" fill="currentColor"/>
<rect x="25.8464" y="2.1543" width="2.15385" height="2.15385" transform="rotate(90 25.8464 2.1543)" fill="currentColor"/>
<rect x="6.46094" y="4.30762" width="2.15385" height="2.15385" transform="rotate(90 6.46094 4.30762)" fill="currentColor"/>
<rect x="6.46094" y="2.1543" width="2.15385" height="2.15385" transform="rotate(90 6.46094 2.1543)" fill="currentColor"/>
<rect x="6.46094" y="6.46191" width="2.15385" height="2.15385" transform="rotate(90 6.46094 6.46191)" fill="currentColor"/>
<rect x="21.5391" y="4.30762" width="2.15385" height="2.15385" transform="rotate(90 21.5391 4.30762)" fill="currentColor"/>
<rect x="21.5391" y="2.1543" width="2.15385" height="2.15385" transform="rotate(90 21.5391 2.1543)" fill="currentColor"/>
<rect x="21.5391" y="6.46191" width="2.15385" height="2.15385" transform="rotate(90 21.5391 6.46191)" fill="currentColor"/>
<rect x="17.2305" y="4.30762" width="2.15385" height="2.15385" transform="rotate(90 17.2305 4.30762)" fill="currentColor"/>
<rect x="17.2305" y="2.1543" width="2.15385" height="2.15385" transform="rotate(90 17.2305 2.1543)" fill="currentColor"/>
<rect x="17.2305" y="6.46191" width="2.15385" height="2.15385" transform="rotate(90 17.2305 6.46191)" fill="currentColor"/>
<rect x="21.5391" y="8.61523" width="2.15385" height="2.15385" transform="rotate(90 21.5391 8.61523)" fill="currentColor"/>
<rect x="19.3841" y="8.61523" width="2.15385" height="2.15385" transform="rotate(90 19.3841 8.61523)" fill="currentColor"/>
<rect x="17.2305" y="8.61523" width="2.15385" height="2.15385" transform="rotate(90 17.2305 8.61523)" fill="currentColor"/>
<rect x="15.0768" y="8.61523" width="2.15385" height="2.15385" transform="rotate(90 15.0768 8.61523)" fill="currentColor"/>
<rect x="12.9232" y="8.61523" width="2.15385" height="2.15385" transform="rotate(90 12.9232 8.61523)" fill="currentColor"/>
<rect x="10.7695" y="8.61523" width="2.15385" height="2.15385" transform="rotate(90 10.7695 8.61523)" fill="currentColor"/>
<rect x="8.61589" y="8.61523" width="2.15385" height="2.15385" transform="rotate(90 8.61589 8.61523)" fill="currentColor"/>
<rect x="6.46094" y="8.61523" width="2.15385" height="2.15385" transform="rotate(90 6.46094 8.61523)" fill="currentColor"/>
<rect x="23.6927" y="15.0771" width="2.15385" height="2.15385" transform="rotate(90 23.6927 15.0771)" fill="currentColor"/>
<rect x="21.5391" y="15.0771" width="2.15385" height="2.15385" transform="rotate(90 21.5391 15.0771)" fill="currentColor"/>
<rect x="19.3841" y="15.0771" width="2.15385" height="2.15385" transform="rotate(90 19.3841 15.0771)" fill="currentColor"/>
<rect x="17.2305" y="15.0771" width="2.15385" height="2.15385" transform="rotate(90 17.2305 15.0771)" fill="currentColor"/>
<rect x="15.0768" y="15.0771" width="2.15385" height="2.15385" transform="rotate(90 15.0768 15.0771)" fill="currentColor"/>
<rect x="12.9232" y="15.0771" width="2.15385" height="2.15385" transform="rotate(90 12.9232 15.0771)" fill="currentColor"/>
<rect x="10.7695" y="15.0771" width="2.15385" height="2.15385" transform="rotate(90 10.7695 15.0771)" fill="currentColor"/>
<rect x="8.61589" y="15.0771" width="2.15385" height="2.15385" transform="rotate(90 8.61589 15.0771)" fill="currentColor"/>
<rect x="6.46094" y="15.0771" width="2.15385" height="2.15385" transform="rotate(90 6.46094 15.0771)" fill="currentColor"/>
<rect x="23.6927" y="17.2305" width="2.15385" height="2.15385" transform="rotate(90 23.6927 17.2305)" fill="currentColor"/>
<rect x="6.46094" y="17.2305" width="2.15385" height="2.15385" transform="rotate(90 6.46094 17.2305)" fill="currentColor"/>
<rect x="23.6927" y="19.3848" width="2.15385" height="2.15385" transform="rotate(90 23.6927 19.3848)" fill="currentColor"/>
<rect x="6.46094" y="19.3848" width="2.15385" height="2.15385" transform="rotate(90 6.46094 19.3848)" fill="currentColor"/>
<rect x="23.6927" y="21.5381" width="2.15385" height="2.15385" transform="rotate(90 23.6927 21.5381)" fill="currentColor"/>
<rect x="6.46094" y="21.5381" width="2.15385" height="2.15385" transform="rotate(90 6.46094 21.5381)" fill="currentColor"/>
<rect x="6.46094" y="23.6924" width="2.15385" height="2.15385" transform="rotate(90 6.46094 23.6924)" fill="currentColor"/>
<rect x="23.6927" y="23.6924" width="2.15385" height="2.15385" transform="rotate(90 23.6927 23.6924)" fill="currentColor"/>
<rect x="25.8464" y="25.8457" width="2.15385" height="2.15385" transform="rotate(90 25.8464 25.8457)" fill="currentColor"/>
<rect x="23.6927" y="25.8457" width="2.15385" height="2.15385" transform="rotate(90 23.6927 25.8457)" fill="currentColor"/>
<rect x="21.5391" y="25.8457" width="2.15385" height="2.15385" transform="rotate(90 21.5391 25.8457)" fill="currentColor"/>
<rect x="19.3841" y="25.8457" width="2.15385" height="2.15385" transform="rotate(90 19.3841 25.8457)" fill="currentColor"/>
<rect x="17.2305" y="25.8457" width="2.15385" height="2.15385" transform="rotate(90 17.2305 25.8457)" fill="currentColor"/>
<rect x="15.0768" y="25.8457" width="2.15385" height="2.15385" transform="rotate(90 15.0768 25.8457)" fill="currentColor"/>
<rect x="12.9232" y="25.8457" width="2.15385" height="2.15385" transform="rotate(90 12.9232 25.8457)" fill="currentColor"/>
<rect x="10.7695" y="25.8457" width="2.15385" height="2.15385" transform="rotate(90 10.7695 25.8457)" fill="currentColor"/>
<rect x="8.61589" y="25.8457" width="2.15385" height="2.15385" transform="rotate(90 8.61589 25.8457)" fill="currentColor"/>
<rect x="6.46094" y="25.8457" width="2.15385" height="2.15385" transform="rotate(90 6.46094 25.8457)" fill="currentColor"/>
<rect x="4.3073" y="25.8457" width="2.15385" height="2.15385" transform="rotate(90 4.3073 25.8457)" fill="currentColor"/>
<rect x="28" y="28" width="2.15385" height="2.15385" transform="rotate(-180 28 28)" fill="currentColor"/>
<rect x="28" y="25.8457" width="2.15385" height="2.15385" transform="rotate(-180 28 25.8457)" fill="currentColor"/>
<rect x="28" y="23.6924" width="2.15385" height="2.15385" transform="rotate(-180 28 23.6924)" fill="currentColor"/>
<rect x="28" y="21.5381" width="2.15385" height="2.15385" transform="rotate(-180 28 21.5381)" fill="currentColor"/>
<rect x="28" y="19.3848" width="2.15385" height="2.15385" transform="rotate(-180 28 19.3848)" fill="currentColor"/>
<rect x="28" y="17.2305" width="2.15385" height="2.15385" transform="rotate(-180 28 17.2305)" fill="currentColor"/>
<rect x="28" y="15.0771" width="2.15385" height="2.15385" transform="rotate(-180 28 15.0771)" fill="currentColor"/>
<rect x="28" y="12.9229" width="2.15385" height="2.15385" transform="rotate(-180 28 12.9229)" fill="currentColor"/>
<rect x="28" y="10.7695" width="2.15385" height="2.15385" transform="rotate(-180 28 10.7695)" fill="currentColor"/>
<rect x="28" y="8.61523" width="2.15385" height="2.15385" transform="rotate(-180 28 8.61523)" fill="currentColor"/>
<rect x="28" y="6.46191" width="2.15385" height="2.15385" transform="rotate(-180 28 6.46191)" fill="currentColor"/>
</symbol>
<symbol id="floppydisk-desktop">
<rect width="1.61538" height="1.61538" fill="currentColor"/>
<rect y="1.61523" width="1.61538" height="1.61538" fill="currentColor"/>
<rect y="3.23047" width="1.61538" height="1.61538" fill="currentColor"/>
<rect y="4.8457" width="1.61538" height="1.61538" fill="currentColor"/>
<rect y="6.46191" width="1.61538" height="1.61538" fill="currentColor"/>
<rect y="8.07715" width="1.61538" height="1.61538" fill="currentColor"/>
<rect y="9.69238" width="1.61538" height="1.61538" fill="currentColor"/>
<rect y="11.3076" width="1.61538" height="1.61538" fill="currentColor"/>
<rect y="12.9229" width="1.61538" height="1.61538" fill="currentColor"/>
<rect y="14.5381" width="1.61538" height="1.61538" fill="currentColor"/>
<rect y="16.1543" width="1.61538" height="1.61538" fill="currentColor"/>
<rect y="17.7695" width="1.61538" height="1.61538" fill="currentColor"/>
<rect y="19.3848" width="1.61538" height="1.61538" fill="currentColor"/>
<rect x="17.7693" width="1.61538" height="1.61538" transform="rotate(90 17.7693 0)" fill="currentColor"/>
<rect x="16.1538" width="1.61538" height="1.61538" transform="rotate(90 16.1538 0)" fill="currentColor"/>
<rect x="14.5385" width="1.61538" height="1.61538" transform="rotate(90 14.5385 0)" fill="currentColor"/>
<rect x="12.9231" width="1.61538" height="1.61538" transform="rotate(90 12.9231 0)" fill="currentColor"/>
<rect x="11.3077" width="1.61538" height="1.61538" transform="rotate(90 11.3077 0)" fill="currentColor"/>
<rect x="9.69226" width="1.61538" height="1.61538" transform="rotate(90 9.69226 0)" fill="currentColor"/>
<rect x="8.0769" width="1.61538" height="1.61538" transform="rotate(90 8.0769 0)" fill="currentColor"/>
<rect x="6.46155" width="1.61538" height="1.61538" transform="rotate(90 6.46155 0)" fill="currentColor"/>
<rect x="4.84619" width="1.61538" height="1.61538" transform="rotate(90 4.84619 0)" fill="currentColor"/>
<rect x="3.23071" width="1.61538" height="1.61538" transform="rotate(90 3.23071 0)" fill="currentColor"/>
<rect x="19.3846" y="1.61523" width="1.61538" height="1.61538" transform="rotate(90 19.3846 1.61523)" fill="currentColor"/>
<rect x="4.84619" y="3.23047" width="1.61538" height="1.61538" transform="rotate(90 4.84619 3.23047)" fill="currentColor"/>
<rect x="4.84619" y="1.61523" width="1.61538" height="1.61538" transform="rotate(90 4.84619 1.61523)" fill="currentColor"/>
<rect x="4.84619" y="4.8457" width="1.61538" height="1.61538" transform="rotate(90 4.84619 4.8457)" fill="currentColor"/>
<rect x="16.1538" y="3.23047" width="1.61538" height="1.61538" transform="rotate(90 16.1538 3.23047)" fill="currentColor"/>
<rect x="16.1538" y="1.61523" width="1.61538" height="1.61538" transform="rotate(90 16.1538 1.61523)" fill="currentColor"/>
<rect x="16.1538" y="4.8457" width="1.61538" height="1.61538" transform="rotate(90 16.1538 4.8457)" fill="currentColor"/>
<rect x="12.9231" y="3.23047" width="1.61538" height="1.61538" transform="rotate(90 12.9231 3.23047)" fill="currentColor"/>
<rect x="12.9231" y="1.61523" width="1.61538" height="1.61538" transform="rotate(90 12.9231 1.61523)" fill="currentColor"/>
<rect x="12.9231" y="4.8457" width="1.61538" height="1.61538" transform="rotate(90 12.9231 4.8457)" fill="currentColor"/>
<rect x="16.1538" y="6.46191" width="1.61538" height="1.61538" transform="rotate(90 16.1538 6.46191)" fill="currentColor"/>
<rect x="14.5385" y="6.46191" width="1.61538" height="1.61538" transform="rotate(90 14.5385 6.46191)" fill="currentColor"/>
<rect x="12.9231" y="6.46191" width="1.61538" height="1.61538" transform="rotate(90 12.9231 6.46191)" fill="currentColor"/>
<rect x="11.3077" y="6.46191" width="1.61538" height="1.61538" transform="rotate(90 11.3077 6.46191)" fill="currentColor"/>
<rect x="9.69226" y="6.46191" width="1.61538" height="1.61538" transform="rotate(90 9.69226 6.46191)" fill="currentColor"/>
<rect x="8.0769" y="6.46191" width="1.61538" height="1.61538" transform="rotate(90 8.0769 6.46191)" fill="currentColor"/>
<rect x="6.46155" y="6.46191" width="1.61538" height="1.61538" transform="rotate(90 6.46155 6.46191)" fill="currentColor"/>
<rect x="4.84619" y="6.46191" width="1.61538" height="1.61538" transform="rotate(90 4.84619 6.46191)" fill="currentColor"/>
<rect x="17.7693" y="11.3076" width="1.61538" height="1.61538" transform="rotate(90 17.7693 11.3076)" fill="currentColor"/>
<rect x="16.1538" y="11.3076" width="1.61538" height="1.61538" transform="rotate(90 16.1538 11.3076)" fill="currentColor"/>
<rect x="14.5385" y="11.3076" width="1.61538" height="1.61538" transform="rotate(90 14.5385 11.3076)" fill="currentColor"/>
<rect x="12.9231" y="11.3076" width="1.61538" height="1.61538" transform="rotate(90 12.9231 11.3076)" fill="currentColor"/>
<rect x="11.3077" y="11.3076" width="1.61538" height="1.61538" transform="rotate(90 11.3077 11.3076)" fill="currentColor"/>
<rect x="9.69226" y="11.3076" width="1.61538" height="1.61538" transform="rotate(90 9.69226 11.3076)" fill="currentColor"/>
<rect x="8.0769" y="11.3076" width="1.61538" height="1.61538" transform="rotate(90 8.0769 11.3076)" fill="currentColor"/>
<rect x="6.46155" y="11.3076" width="1.61538" height="1.61538" transform="rotate(90 6.46155 11.3076)" fill="currentColor"/>
<rect x="4.84619" y="11.3076" width="1.61538" height="1.61538" transform="rotate(90 4.84619 11.3076)" fill="currentColor"/>
<rect x="17.7693" y="12.9229" width="1.61538" height="1.61538" transform="rotate(90 17.7693 12.9229)" fill="currentColor"/>
<rect x="4.84619" y="12.9229" width="1.61538" height="1.61538" transform="rotate(90 4.84619 12.9229)" fill="currentColor"/>
<rect x="17.7693" y="14.5381" width="1.61538" height="1.61538" transform="rotate(90 17.7693 14.5381)" fill="currentColor"/>
<rect x="4.84619" y="14.5381" width="1.61538" height="1.61538" transform="rotate(90 4.84619 14.5381)" fill="currentColor"/>
<rect x="17.7693" y="16.1543" width="1.61538" height="1.61538" transform="rotate(90 17.7693 16.1543)" fill="currentColor"/>
<rect x="4.84619" y="16.1543" width="1.61538" height="1.61538" transform="rotate(90 4.84619 16.1543)" fill="currentColor"/>
<rect x="4.84619" y="17.7695" width="1.61538" height="1.61538" transform="rotate(90 4.84619 17.7695)" fill="currentColor"/>
<rect x="17.7693" y="17.7695" width="1.61538" height="1.61538" transform="rotate(90 17.7693 17.7695)" fill="currentColor"/>
<rect x="19.3846" y="19.3848" width="1.61538" height="1.61538" transform="rotate(90 19.3846 19.3848)" fill="currentColor"/>
<rect x="17.7693" y="19.3848" width="1.61538" height="1.61538" transform="rotate(90 17.7693 19.3848)" fill="currentColor"/>
<rect x="16.1538" y="19.3848" width="1.61538" height="1.61538" transform="rotate(90 16.1538 19.3848)" fill="currentColor"/>
<rect x="14.5385" y="19.3848" width="1.61538" height="1.61538" transform="rotate(90 14.5385 19.3848)" fill="currentColor"/>
<rect x="12.9231" y="19.3848" width="1.61538" height="1.61538" transform="rotate(90 12.9231 19.3848)" fill="currentColor"/>
<rect x="11.3077" y="19.3848" width="1.61538" height="1.61538" transform="rotate(90 11.3077 19.3848)" fill="currentColor"/>
<rect x="9.69226" y="19.3848" width="1.61538" height="1.61538" transform="rotate(90 9.69226 19.3848)" fill="currentColor"/>
<rect x="8.0769" y="19.3848" width="1.61538" height="1.61538" transform="rotate(90 8.0769 19.3848)" fill="currentColor"/>
<rect x="6.46155" y="19.3848" width="1.61538" height="1.61538" transform="rotate(90 6.46155 19.3848)" fill="currentColor"/>
<rect x="4.84619" y="19.3848" width="1.61538" height="1.61538" transform="rotate(90 4.84619 19.3848)" fill="currentColor"/>
<rect x="3.23071" y="19.3848" width="1.61538" height="1.61538" transform="rotate(90 3.23071 19.3848)" fill="currentColor"/>
<rect x="21" y="21" width="1.61538" height="1.61538" transform="rotate(-180 21 21)" fill="currentColor"/>
<rect x="21" y="19.3848" width="1.61538" height="1.61538" transform="rotate(-180 21 19.3848)" fill="currentColor"/>
<rect x="21" y="17.7695" width="1.61538" height="1.61538" transform="rotate(-180 21 17.7695)" fill="currentColor"/>
<rect x="21" y="16.1543" width="1.61538" height="1.61538" transform="rotate(-180 21 16.1543)" fill="currentColor"/>
<rect x="21" y="14.5381" width="1.61538" height="1.61538" transform="rotate(-180 21 14.5381)" fill="currentColor"/>
<rect x="21" y="12.9229" width="1.61538" height="1.61538" transform="rotate(-180 21 12.9229)" fill="currentColor"/>
<rect x="21" y="11.3076" width="1.61538" height="1.61538" transform="rotate(-180 21 11.3076)" fill="currentColor"/>
<rect x="21" y="9.69238" width="1.61538" height="1.61538" transform="rotate(-180 21 9.69238)" fill="currentColor"/>
<rect x="21" y="8.07715" width="1.61538" height="1.61538" transform="rotate(-180 21 8.07715)" fill="currentColor"/>
<rect x="21" y="6.46191" width="1.61538" height="1.61538" transform="rotate(-180 21 6.46191)" fill="currentColor"/>
<rect x="21" y="4.8457" width="1.61538" height="1.61538" transform="rotate(-180 21 4.8457)" fill="currentColor"/>
</symbol>
</svg>
